<svg width="946" height="843" viewBox="0 0 946 843" fill="none" xmlns="http://www.w3.org/2000/svg">
<path d="M945.89 795.765C945.89 821.854 734.144 843 472.944 843C211.746 843 0 821.854 0 795.765C0 769.681 211.746 748.53 472.944 748.53C734.144 748.53 945.89 769.681 945.89 795.765Z" fill="url(#paint0_radial)"/>
<path d="M828.298 176.543C832.337 176.543 836.163 177.437 839.6 179.029C842.62 167.451 853.145 158.905 865.666 158.905C880.545 158.905 892.606 170.966 892.606 185.843C892.606 185.873 892.604 185.899 892.604 185.928C895.256 184.866 898.15 184.275 901.183 184.275C913.924 184.275 924.254 194.604 924.254 207.347C924.254 220.089 913.924 230.42 901.183 230.42C900.457 230.42 899.742 230.382 899.036 230.317H830.643C829.872 230.384 829.089 230.42 828.298 230.42C813.421 230.42 801.36 218.359 801.36 203.48C801.36 188.604 813.421 176.543 828.298 176.543Z" fill="url(#paint1_linear)"/>
<path d="M563.868 400.226H419.388L394.133 526.869H538.608L563.868 400.226ZM608.322 169.336H712.388L687.127 297.703H801.296V400.226H667.932L641.662 526.869H768.965V630.252H622.466L594.176 773.265H490.113L518.401 630.252H373.924L345.634 773.265H241.571L270.87 630.252H160.745V526.869H290.068L315.324 400.226H193.077V297.703H335.531L360.792 169.336H463.844L438.585 297.703H583.064L608.322 169.336Z" fill="#B2A5DA"/>
<path d="M545.704 400.226H401.223L375.969 526.869H520.444L545.704 400.226ZM590.158 169.336H694.223L668.963 297.703H783.131V400.226H649.767L623.498 526.869H750.801V630.252H604.302L576.012 773.265H471.949L500.237 630.252H355.76L327.47 773.265H223.407L252.706 630.252H142.58V526.869H271.904L297.16 400.226H174.912V297.703H317.367L342.627 169.336H445.679L420.421 297.703H564.9L590.158 169.336" fill="url(#paint2_linear)"/>
<path d="M197.123 636.378L181.565 640.542C193.248 650.847 191.531 667.263 191.531 667.263C205.412 667.731 207.275 655.63 207.275 655.63C202.007 649.434 197.123 636.378 197.123 636.378Z" fill="#C79FD6"/>
<path d="M158.505 698.3C171.128 703.892 182.503 712.242 193.392 720.632C198.8 724.799 205.481 729.236 210.91 733.393C214.065 735.811 217.385 738.005 220.557 740.399C222.202 741.64 226.103 744.506 226.023 746.887C225.968 748.504 224.442 750.787 223.738 752.173C221.891 755.806 219.576 759.38 216.464 762.06C210.642 767.076 202.098 766.574 195.254 764.238C186.42 761.22 179.514 754.197 172.961 747.836C168.546 743.551 164.332 738.951 160.849 733.867C156.46 727.462 152.193 720.945 148.214 714.276C147.633 701.083 158.505 698.3 158.505 698.3Z" fill="#1E2328"/>
<path d="M90.6237 761.594C90.6782 761.58 90.7325 761.566 90.7854 761.552C91.4058 761.404 92.0349 761.338 92.668 761.32C92.4527 761.295 92.2383 761.267 92.0224 761.241C92.2242 761.266 92.4472 761.294 92.6837 761.32C94.0279 761.285 95.3894 761.489 96.7156 761.754C97.138 761.839 97.5615 761.927 97.9857 762.016C100.016 762.294 101.82 762.549 102.37 762.628C102.452 762.63 102.535 762.633 102.619 762.64C103.66 762.462 114.417 761.064 119.244 759.818C119.381 759.782 119.52 759.742 119.658 759.699C122.933 755.053 125.363 749.467 125.363 749.467L137.634 755.423C137.634 755.423 132.254 761.901 130.569 765.926C130.435 766.248 130.473 767.688 130.478 767.77C130.495 768.107 130.522 768.449 130.538 768.787C130.554 769.137 130.566 769.488 130.551 769.837C130.505 770.904 130.591 772.014 130.416 773.087C130.221 774.273 129.724 775.427 129.237 776.519C129.072 776.886 128.902 777.25 128.718 777.607C128.36 778.306 127.926 778.998 127.274 779.434C126.259 780.112 124.93 780.046 123.727 779.841C121.271 779.426 118.914 778.559 116.482 778.029C112.002 777.046 107.188 776.628 102.721 775.252C97.7758 773.724 93.551 770.648 89.0162 768.247C87.8187 767.61 86.1607 766.279 86.4887 764.737C86.8205 763.173 89.2614 761.955 90.6237 761.594Z" fill="#C79FD6"/>
<path d="M102.364 762.628C101.291 762.611 100.229 762.456 99.1714 762.254C99.1421 762.248 99.1123 762.244 99.083 762.238C98.7401 762.171 98.398 762.103 98.0565 762.033C99.4929 762.226 100.929 762.422 102.364 762.628ZM86.7055 764.165C86.6053 764.349 86.5305 764.541 86.4887 764.737C86.2632 765.796 86.9767 766.759 87.8329 767.461C88.223 767.78 88.6426 768.047 89.0161 768.247C91.2837 769.447 93.4729 770.816 95.7143 772.075C96.5547 772.55 97.4022 773.005 98.2638 773.433C98.5706 773.585 98.8804 773.734 99.1902 773.877C99.7522 774.137 100.321 774.382 100.897 774.608C101.198 774.727 101.498 774.838 101.801 774.945C102.106 775.054 102.411 775.155 102.72 775.252C103.837 775.593 104.976 775.88 106.126 776.128C107.564 776.436 109.017 776.691 110.467 776.937C112.499 777.276 114.522 777.599 116.482 778.029C117.09 778.16 117.693 778.314 118.294 778.477C118.897 778.638 119.496 778.81 120.096 778.977C121.296 779.312 122.971 779.866 124.199 780.072C124.951 780.201 125.752 780.273 126.495 780.146C126.644 780.12 126.79 780.086 126.932 780.046C127.219 779.958 127.492 779.835 127.746 779.666C127.991 779.5 128.204 779.3 128.395 779.078C128.458 779.006 128.52 778.929 128.578 778.85C128.813 778.536 129.011 778.188 129.19 777.839C129.392 777.446 129.712 776.778 130.03 776.003C130.093 775.847 130.157 775.687 130.219 775.524C130.334 775.228 130.444 774.919 130.547 774.61C130.621 774.382 130.69 774.154 130.752 773.924C130.836 773.623 130.908 773.322 130.957 773.04C130.986 772.881 131.008 772.727 131.023 772.578C131.113 771.689 130.968 770.799 130.995 769.912C130.998 769.794 130.91 768.713 130.988 768.672C125.716 769.213 118.452 765.011 117.711 759.849C111.853 761.06 103.444 762.499 102.619 762.64C102.582 762.633 102.545 762.632 102.509 762.632C102.462 762.63 102.416 762.628 102.37 762.628C101.82 762.549 100.016 762.294 97.9863 762.016C97.5614 761.927 97.1388 761.839 96.7156 761.754C96.4096 761.693 96.1014 761.637 95.7914 761.584C95.7396 761.574 95.6875 761.566 95.6346 761.558C95.3264 761.508 95.0174 761.463 94.7074 761.425C94.0319 761.344 93.3554 761.302 92.6837 761.32C92.4472 761.294 92.2242 761.266 92.0223 761.241C92.2383 761.267 92.4526 761.295 92.668 761.32C92.4268 761.328 92.1854 761.344 91.9458 761.368C91.848 761.378 91.7495 761.385 91.6518 761.399C91.5674 761.408 91.4831 761.421 91.3995 761.435C91.1945 761.467 90.9902 761.504 90.7876 761.552C90.7325 761.566 90.6782 761.58 90.6237 761.594C90.5393 761.616 90.4495 761.641 90.3573 761.671C90.3516 761.673 90.3462 761.675 90.3399 761.677C90.2089 761.717 90.0703 761.768 89.9276 761.822C89.4678 761.996 88.9641 762.23 88.4833 762.517C88.3768 762.581 88.2728 762.646 88.1703 762.715C87.9636 762.852 87.7675 762.995 87.5836 763.151C87.3999 763.306 87.232 763.467 87.0831 763.637C86.9404 763.8 86.8175 763.972 86.718 764.149C86.7149 764.156 86.7093 764.16 86.7055 764.165Z" fill="#1E2328"/>
<path d="M156.997 698.479C156.997 698.479 154.47 696.778 150.426 703.796C146.383 710.813 121.933 753.483 121.933 753.483L133.897 762.987C133.897 762.987 161.399 743.063 168.352 714.502C168.352 714.502 169.193 699.626 156.997 698.479Z" fill="#1E2328"/>
<path d="M160.289 705.434C172.912 711.027 184.287 719.376 195.176 727.766C200.585 731.936 207.265 736.37 212.694 740.528C215.849 742.948 219.167 745.142 222.341 747.533C223.986 748.774 227.888 751.64 227.809 754.022C227.752 755.638 226.227 757.923 225.522 759.307C223.675 762.943 221.36 766.515 218.248 769.197C212.426 774.211 203.882 773.71 197.039 771.373C188.207 768.358 181.298 761.332 174.747 754.97C170.331 750.686 166.117 746.088 162.633 741.004C158.245 734.596 153.977 728.081 149.999 721.411C149.417 708.218 160.289 705.434 160.289 705.434Z" fill="#2A2F36"/>
<path d="M92.4086 768.729C92.4629 768.715 92.5158 768.701 92.5703 768.688C93.1891 768.539 93.8198 768.472 94.4529 768.454C94.2375 768.43 94.0232 768.402 93.807 768.377C94.0083 768.4 94.2321 768.428 94.4686 768.454C95.8128 768.42 97.1735 768.626 98.4995 768.888C98.9221 768.973 99.3463 769.064 99.7696 769.152C101.801 769.432 103.604 769.685 104.153 769.762C104.237 769.764 104.319 769.768 104.403 769.774C105.444 769.596 116.202 768.198 121.028 766.953C121.165 766.918 121.304 766.876 121.442 766.835C124.716 762.188 127.147 756.602 127.147 756.602L139.419 762.557C139.419 762.557 134.039 769.036 132.354 773.062C132.22 773.383 132.258 774.822 132.262 774.904C132.28 775.246 132.305 775.585 132.321 775.924C132.337 776.273 132.351 776.622 132.335 776.972C132.29 778.041 132.376 779.149 132.2 780.221C132.006 781.407 131.509 782.566 131.021 783.655C130.857 784.021 130.687 784.385 130.502 784.742C130.144 785.44 129.711 786.132 129.059 786.568C128.044 787.248 126.714 787.179 125.512 786.976C123.056 786.56 120.699 785.694 118.266 785.164C113.786 784.182 108.973 783.763 104.505 782.386C99.5599 780.861 95.3343 777.783 90.8011 775.381C89.6026 774.748 87.9454 773.413 88.2734 771.872C88.6054 770.307 91.0455 769.092 92.4086 768.729Z" fill="#E1C9E8"/>
<path d="M104.148 769.762H104.148C103.075 769.746 102.013 769.591 100.955 769.389C100.926 769.383 100.896 769.379 100.867 769.372C100.525 769.308 100.183 769.238 99.8414 769.167C101.277 769.362 102.713 769.559 104.148 769.762ZM88.4904 771.302C88.3887 771.486 88.3152 771.675 88.2734 771.872C88.048 772.93 88.7614 773.894 89.6178 774.596C90.0079 774.917 90.4265 775.181 90.8011 775.381C93.0676 776.582 95.2578 777.95 97.4982 779.211C98.3388 779.684 99.1871 780.14 100.048 780.568C100.355 780.721 100.665 780.869 100.975 781.012C101.537 781.272 102.105 781.518 102.682 781.745C102.981 781.862 103.283 781.975 103.586 782.081C103.889 782.188 104.196 782.289 104.505 782.386C105.622 782.729 106.761 783.014 107.91 783.262C109.347 783.575 110.802 783.83 112.252 784.072C114.282 784.412 116.307 784.733 118.266 785.164C118.875 785.295 119.478 785.448 120.078 785.612C120.68 785.775 121.28 785.944 121.88 786.112C123.08 786.447 124.756 787 125.983 787.206C126.735 787.335 127.537 787.407 128.28 787.28C128.428 787.256 128.575 787.222 128.717 787.18C129.003 787.093 129.277 786.97 129.53 786.8C129.775 786.636 129.989 786.437 130.179 786.213C130.243 786.141 130.304 786.063 130.362 785.985C130.597 785.67 130.795 785.323 130.975 784.974C131.176 784.582 131.496 783.914 131.814 783.139C131.878 782.984 131.942 782.825 132.004 782.661C132.119 782.362 132.229 782.055 132.331 781.745C132.406 781.517 132.475 781.288 132.537 781.06C132.62 780.757 132.692 780.461 132.742 780.174C132.77 780.015 132.792 779.862 132.808 779.712C132.897 778.826 132.751 777.936 132.778 777.046C132.782 776.931 132.695 775.847 132.772 775.807C127.5 776.35 120.237 772.146 119.496 766.983C113.637 768.194 105.228 769.633 104.403 769.774C104.367 769.768 104.33 769.766 104.293 769.766C104.247 769.764 104.2 769.762 104.153 769.762C103.604 769.686 101.801 769.432 99.7712 769.152C99.3464 769.064 98.9221 768.973 98.4989 768.888C98.1937 768.83 97.8847 768.773 97.5764 768.719C97.5243 768.711 97.4724 768.702 97.4187 768.695C97.1114 768.642 96.8013 768.597 96.4923 768.561C95.8152 768.478 95.1403 768.438 94.4686 768.454C94.2321 768.428 94.0083 768.4 93.8071 768.377C94.0232 768.402 94.2376 768.43 94.4529 768.454C94.2107 768.463 93.9703 768.478 93.73 768.503C93.6313 768.513 93.5344 768.521 93.4365 768.533C93.3515 768.543 93.268 768.557 93.1836 768.569C92.9794 768.604 92.7751 768.638 92.5717 768.688C92.5158 768.701 92.4629 768.715 92.4086 768.729C92.3243 768.753 92.2342 768.78 92.1414 768.806C92.1357 768.807 92.1295 768.81 92.1246 768.812C91.9939 768.854 91.8536 768.904 91.7117 768.957C91.2528 769.13 90.7482 769.367 90.2681 769.653C90.1617 769.715 90.0567 769.782 89.9536 769.851C89.7486 769.986 89.5514 770.132 89.3685 770.287C89.1849 770.441 89.0161 770.602 88.868 770.771C88.7253 770.935 88.6014 771.106 88.5021 771.284C88.4982 771.29 88.4942 771.296 88.4904 771.302Z" fill="#2A2F36"/>
<path d="M158.782 705.616C158.782 705.616 156.255 703.915 152.211 710.93C148.168 717.948 123.718 760.622 123.718 760.622L135.682 770.124C135.682 770.124 163.184 750.197 170.135 721.637C170.135 721.637 170.977 706.762 158.782 705.616Z" fill="#2A2F36"/>
<path d="M195.957 654.356C195.957 654.356 200.863 648.558 210.678 654.356C220.493 660.157 232.021 682.338 234.697 714.012C237.373 745.684 223.615 762.761 223.615 762.761L195.957 722.561C195.957 722.561 205.771 711.459 195.957 679.338V654.356Z" fill="#C81455"/>
<path d="M141.912 680.259L139.247 680.977L131.965 653.906L134.63 653.188L141.912 680.259Z" fill="url(#paint3_linear)"/>
<path d="M208.058 662.976C207.077 657.396 199.985 656.746 199.985 656.746C196.118 656.5 193.299 658.478 192.235 661.828C191.652 663.665 189.704 685.096 188.245 701.547C195.295 705.194 199.911 707.929 202.827 709.81C208.496 692.546 208.058 662.976 208.058 662.976Z" fill="#E1C9E8"/>
<path d="M186.965 671.136C191.359 647.898 203.198 652.07 203.198 652.07C203.198 652.07 216.876 651.529 212.537 675.302C211.306 682.043 209.875 691.426 209.534 693.569L196.296 691.412L183.058 689.254C183.415 687.115 185.692 677.869 186.965 671.136Z" fill="#ED0C6C"/>
<path d="M202.827 709.81C199.91 707.929 195.295 705.194 188.245 701.547C179.048 696.792 174.295 694.059 155.35 686.158C154.371 685.185 152.866 683.625 152.68 683.405C151.611 682.138 150.63 680.662 149.423 679.53C149.276 679.391 149.122 679.274 148.962 679.169C147.952 678.509 146.717 678.404 145.811 677.478C144.863 676.511 144.111 675.191 143.563 673.96C143.059 672.827 142.998 671.621 142.549 670.488C142.466 670.28 142.354 670.073 142.169 669.947C141.821 669.709 141.335 669.836 140.985 670.071C139.809 670.86 139.593 672.416 139.677 673.726C139.718 674.367 139.864 674.985 139.992 675.615C140.081 676.055 140.201 677.809 140.591 678.051C138.599 676.814 136.606 675.576 134.614 674.339C133.96 675.167 133.704 676.24 133.618 677.292C133.532 678.343 133.598 679.401 133.504 680.452C133.429 681.28 133.258 682.132 133.495 682.925C133.668 683.506 134.042 683.999 134.409 684.475C135.337 685.686 136.265 686.895 137.192 688.104C137.386 688.358 137.583 688.614 137.833 688.812C138.144 689.06 138.524 689.21 138.896 689.355C142.978 690.939 147.061 692.522 151.143 694.106L151.116 694.168C151.116 694.168 171.15 710.3 179.653 715.962C186.441 720.478 191.337 721.05 194.835 719.899C197.487 719.025 199.333 717.162 200.585 715.275C202.31 712.678 202.908 710.034 202.932 709.877C202.897 709.854 202.861 709.83 202.827 709.81Z" fill="#E1C9E8"/>
<path d="M163.125 622.92C163.125 622.92 169.824 653.931 183.288 658.869C183.288 658.869 209.156 650.302 200.902 635.607C197.016 628.692 181.056 599.145 163.125 622.92Z" fill="#E1C9E8"/>
<path d="M167.723 637.098L173.025 648.792L167.451 651.321L167.723 637.098Z" fill="#C79FD6"/>
<path d="M203.834 649.311C203.834 649.311 183.94 624.728 180.446 623.925C176.955 623.124 167.649 628.476 159.95 622.087C152.352 615.777 154.319 610.74 156.283 609.733C158.248 608.724 164.432 615.291 169.968 608.641C175.601 601.874 189.924 597.623 193.785 602.562C193.785 602.562 201.697 601.054 204.696 613.614C211.071 640.311 203.834 649.311 203.834 649.311Z" fill="#1E2328"/>
<path d="M187.407 630.947C187.407 630.947 191.093 622.492 195.581 626.23C199.42 629.425 197.204 638.358 195.545 640.253L187.407 630.947Z" fill="#E1C9E8"/>
<path d="M449.684 700.243C445.336 683.609 444.646 666.054 444.37 648.941C444.23 640.441 448.517 609.339 448.993 600.838C449.9 584.747 453.232 587.821 472.425 591.92C474.851 592.436 477.152 593.427 479.203 594.826C503.331 611.305 489.034 649.079 482.504 670.367C479.671 679.613 476.635 688.82 473.227 697.872C460.826 708.674 449.684 700.243 449.684 700.243Z" fill="#1E2328"/>
<path d="M494.663 806.204C494.206 804.843 493.322 803.57 492.557 802.315C492.339 801.957 490.471 798.42 490.37 797.998C488.908 791.872 486.63 774.612 486.63 774.612L469.539 777.762C469.539 777.762 474.894 792.041 474.212 801.192L474.234 801.191C467.525 806.868 455.177 815.121 455.177 815.121C455.177 815.121 440.456 820.606 439.728 821.111C438.997 821.613 437.124 822.548 435.277 825.079C435.277 825.079 434.28 829.361 453.876 828.596C453.876 828.596 462.451 828.788 475.217 824.114C478.022 823.3 480.823 822.487 483.629 821.674C486.509 820.838 495.254 818.816 496.233 817.74C496.612 817.324 496.846 816.931 496.977 816.544C497.989 813.554 495.609 809.037 494.663 806.204Z" fill="#E1C9E8"/>
<path d="M492.604 802.389C488.418 803.923 483.699 804.579 479.756 804.856C476.936 805.049 473.693 804.851 470.742 804.002C463.965 809.245 455.177 815.121 455.177 815.121C455.177 815.121 440.456 820.606 439.728 821.111C438.997 821.613 437.124 822.548 435.277 825.079C435.277 825.079 434.28 829.361 453.876 828.596C453.876 828.596 462.451 828.788 475.217 824.114C478.022 823.3 480.823 822.487 483.629 821.676C486.509 820.838 495.254 818.816 496.233 817.74C496.612 817.324 496.846 816.931 496.977 816.544C497.989 813.554 495.609 809.037 494.663 806.204C494.217 804.869 493.357 803.62 492.604 802.389Z" fill="#1E2328"/>
<path d="M487.964 782.897C487.364 762.224 483.719 717.231 470.926 693.632C470.926 693.632 464.562 685.561 451.956 694.984C451.956 694.984 448.079 695.541 450.277 705.713C451.944 713.437 464.31 762.45 470.167 785.605L487.964 782.897Z" fill="#1E2328"/>
<path d="M492.228 612.405L469.818 591.347L466.247 612.605C465.067 610.425 463.565 608.33 461.694 606.35C459.991 604.544 457.954 603.085 455.694 602.059C437.818 593.958 435.221 590.243 430.898 605.769C428.615 613.969 417.785 643.44 416.104 651.773C412.719 668.551 409.644 685.851 410.338 703.027C410.338 703.027 419.422 713.643 433.842 705.739C439.108 697.628 444.039 689.278 448.784 680.852C452.211 674.765 456.729 667.259 460.701 659.166C467.709 657.41 488.226 650.917 491.93 634.331C491.93 634.331 494.136 625.259 492.228 612.405Z" fill="#2A2F36"/>
<path d="M431.643 816.149C431.489 814.722 430.896 813.29 430.415 811.902C430.28 811.504 429.209 807.649 429.2 807.217C429.083 800.92 430.545 783.573 430.545 783.573L413.174 782.998C413.174 782.998 415.355 798.092 412.736 806.886L412.756 806.888C404.989 810.999 391.164 816.428 391.164 816.428C391.164 816.428 375.612 818.642 374.79 818.979C373.969 819.314 371.943 819.825 369.597 821.904C369.597 821.904 367.706 825.873 387.013 829.315C387.013 829.315 395.35 831.333 408.82 829.493C411.732 829.296 414.647 829.101 417.559 828.907C420.55 828.705 429.525 828.596 430.712 827.757C431.17 827.432 431.485 827.097 431.697 826.744C433.322 824.039 431.961 819.121 431.643 816.149Z" fill="#E1C9E8"/>
<path d="M420.954 783.254C421.281 784.203 421.567 785.165 421.819 786.138C422.177 785.204 422.518 784.263 422.847 783.319L420.954 783.254Z" fill="#FCD3AC"/>
<path d="M430.415 811.902C430.337 811.671 429.945 810.285 429.628 809.071C428.958 809.419 428.294 809.745 427.648 810.054C420.167 813.623 412.162 813.082 404.285 811.243C404.136 811.207 403.996 811.164 403.859 811.12C397.407 813.976 391.164 816.426 391.164 816.426C391.164 816.426 375.612 818.642 374.79 818.979C373.969 819.314 371.943 819.825 369.597 821.904C369.597 821.904 367.706 825.873 387.013 829.315C387.013 829.315 395.35 831.333 408.82 829.493C411.732 829.296 414.647 829.101 417.559 828.907C420.55 828.705 429.525 828.596 430.712 827.757C431.17 827.432 431.485 827.097 431.697 826.744C433.322 824.039 431.961 819.121 431.643 816.149C431.489 814.722 430.896 813.29 430.415 811.902Z" fill="#2A2F36"/>
<path d="M430.078 791.951C433.907 771.629 439.958 726.895 432.5 701.105C432.5 701.105 428.008 691.862 413.68 698.375C413.68 698.375 409.773 698.09 409.748 708.498C409.728 716.398 411.337 766.922 412.112 790.794L430.078 791.951Z" fill="#2A2F36"/>
<path d="M432.712 494.575L435.231 504.707L429.392 506.156L432.712 494.575Z" fill="#C79FD6"/>
<path d="M449.262 505.351C449.199 508.588 448.56 527.626 448.56 527.626C450.513 529.842 459.995 530.643 463.997 527.261C467.182 524.571 467.517 522.149 467.517 522.149L466.348 494.343L449.262 505.351Z" fill="#C79FD6"/>
<path d="M464.946 473.275L465.987 483.186L467.575 498.307L468.024 502.559C458.38 518.958 442.416 520.691 437.239 515.218C432.062 509.742 429.733 478.474 429.733 478.474L464.946 473.275Z" fill="#E1C9E8"/>
<path d="M460.598 516.699C460.598 516.699 448.432 491.019 444.65 488.882C440.868 486.744 428.207 489.758 421.466 479.674C414.812 469.727 418.835 464.548 421.466 464.055C424.096 463.563 429.019 473.325 437.744 467.508C446.622 461.589 464.734 461.589 467.517 468.659C467.517 468.659 478.849 469.811 476.381 485.265C473.915 500.721 469.64 513.71 465.86 514.861L460.598 516.699Z" fill="#1E2328"/>
<path d="M453.212 488.759C457.115 491.895 456.945 500.953 449.407 505.95L446.319 491.082C446.723 488.787 450.642 486.696 453.212 488.759Z" fill="#E1C9E8"/>
<path d="M369.149 522.675C369.149 522.675 367.301 531.243 370.177 538.436C373.053 545.627 377.779 549.736 380.244 557.133C382.71 564.53 399.764 598.433 408.806 599.05C408.806 599.05 425.86 593.09 435.927 572.337L421.955 557.133L408.806 574.187L391.134 552.818L387.437 547.885C387.437 547.885 388.258 538.846 384.767 532.476L369.149 522.675Z" fill="#E1C9E8"/>
<path d="M359.492 511.416L375.21 540.386L391.546 531.552L376.239 502.067L359.492 511.416Z" fill="url(#paint4_linear)"/>
<path d="M361.573 512.019L374.07 535.148L387.719 527.765L375.604 504.186L361.573 512.019Z" fill="#F3E0F2"/>
<path d="M396.04 514.009L378.99 510.78C378.99 510.78 377.852 511.9 379.794 514.009C381.735 516.118 393.421 518.738 393.421 518.738C393.421 518.738 397.813 520.788 397.427 522.177C397.427 522.177 396.735 522.33 396.117 522.177C395.502 522.024 390.724 521.21 388.335 523.85C388.335 523.85 387.517 524.811 388.056 525.335C388.593 525.862 396.888 525.721 400.971 527.263C405.056 528.803 413.224 526.647 413.995 526.415C414.764 526.183 431.638 535.893 431.638 535.893L446.38 529.546L420.518 518.094C420.518 518.094 410.346 512.729 405.004 513.05C399.661 513.367 396.04 514.009 396.04 514.009Z" fill="#C79FD6"/>
<path d="M408.806 569.051C408.806 569.051 416.203 588.16 427.297 587.954L447.284 572.954L429.763 535.148L408.806 569.051Z" fill="#C81455"/>
<path d="M466.264 522.716C455.878 523.144 445.49 526.966 436.184 531.186C435.402 531.542 429.58 534.044 429.763 535.148C429.765 535.162 437.851 583.437 431.548 600.899L425.86 620.623C425.86 620.623 467.224 643.71 493.538 617.063C493.538 617.063 497.365 546.037 487.296 528.573C486.073 526.448 482.682 525.287 480.559 524.587C475.864 523.043 471.065 522.516 466.264 522.716Z" fill="#ED0C6C"/>
<path d="M375.21 540.386C375.21 540.386 377.164 539.976 377.573 536.688C377.985 533.402 379.115 525.695 379.115 525.695C379.115 525.695 380.04 523.128 380.861 524.052C381.683 524.976 383.327 527.346 382.607 532.119C382.607 532.119 382.141 536.276 382.784 537.613C383.43 538.949 385.073 542.545 384.046 546.961C384.046 546.961 375.93 546.858 375.21 540.386Z" fill="#E1C9E8"/>
<path d="M844.771 373.652C844.728 373.613 844.682 373.575 844.638 373.539C844.119 373.111 843.556 372.753 842.963 372.445C843.178 372.519 843.396 372.592 843.61 372.669C843.411 372.598 843.185 372.519 842.948 372.437C841.691 371.777 840.308 371.341 838.93 370.975C838.488 370.856 838.046 370.745 837.604 370.632C835.552 369.952 833.725 369.355 833.168 369.173C833.089 369.135 833.008 369.102 832.926 369.068C832.022 368.416 822.481 362.095 818.491 358.672C818.378 358.575 818.267 358.472 818.154 358.367C817.212 352.446 817.506 346.026 817.506 346.026L803.116 345.965C803.116 345.965 805.201 354.601 804.925 359.197C804.904 359.562 804.2 360.908 804.156 360.983C803.982 361.298 803.8 361.607 803.627 361.922C803.449 362.244 803.276 362.569 803.126 362.908C802.674 363.942 802.077 364.953 801.744 366.049C801.376 367.264 801.31 368.588 801.267 369.849C801.251 370.271 801.245 370.695 801.253 371.119C801.267 371.946 801.358 372.804 801.772 373.52C802.416 374.634 803.709 375.187 804.943 375.555C807.459 376.302 810.095 376.576 812.646 377.202C817.345 378.356 822.098 380.195 826.97 380.966C832.363 381.819 837.794 380.867 843.205 380.699C844.634 380.655 846.823 380.162 847.229 378.548C847.639 376.915 845.895 374.628 844.771 373.652Z" fill="#C79FD6"/>
<path d="M801.243 370.628C801.221 370.285 801.209 369.94 801.231 369.597C801.207 369.954 801.207 370.299 801.243 370.628Z" fill="#FABD7A"/>
<path d="M826.247 372.812C826.215 372.808 826.183 372.804 826.155 372.8C826.185 372.804 826.215 372.808 826.247 372.812Z" fill="#FABD7A"/>
<path d="M825.646 372.725C825.467 372.693 825.287 372.657 825.109 372.614C825.293 372.659 825.469 372.693 825.646 372.725Z" fill="#FABD7A"/>
<path d="M831.572 370.765C831.653 370.683 831.733 370.592 831.812 370.503C831.733 370.592 831.655 370.681 831.572 370.765Z" fill="#FABD7A"/>
<path d="M832.157 370.108C832.119 370.154 832.082 370.2 832.044 370.247C832.082 370.202 832.119 370.152 832.157 370.108Z" fill="#FABD7A"/>
<path d="M837.53 370.614C837.172 370.521 836.817 370.428 836.462 370.331C836.432 370.323 836.401 370.315 836.369 370.305C835.275 370.005 834.197 369.659 833.172 369.175C834.627 369.649 836.078 370.132 837.53 370.614ZM847.286 377.886C847.274 377.672 847.235 377.454 847.177 377.232C847.116 377.002 847.032 376.77 846.929 376.538C846.828 376.308 846.707 376.077 846.575 375.853C846.511 375.74 846.442 375.631 846.37 375.52C846.049 375.026 845.681 374.57 845.326 374.192C845.215 374.075 845.106 373.962 845.003 373.863C844.999 373.859 844.993 373.853 844.989 373.849C844.916 373.779 844.844 373.712 844.771 373.652C844.729 373.613 844.682 373.575 844.638 373.537C844.466 373.397 844.291 373.266 844.111 373.141C844.038 373.088 843.964 373.038 843.891 372.99C843.802 372.933 843.715 372.877 843.627 372.824C843.411 372.689 843.189 372.564 842.963 372.445C843.179 372.519 843.397 372.592 843.61 372.669C843.411 372.598 843.185 372.519 842.949 372.437C842.321 372.108 841.661 371.831 840.983 371.595C840.672 371.486 840.359 371.385 840.044 371.29C839.99 371.274 839.935 371.258 839.883 371.242C839.564 371.149 839.247 371.058 838.93 370.975C838.488 370.856 838.044 370.745 837.604 370.632C835.55 369.952 833.725 369.355 833.168 369.173C833.124 369.153 833.077 369.131 833.035 369.112C832.999 369.094 832.964 369.08 832.926 369.068C832.211 368.551 824.915 363.282 819.93 359.413C816.828 363.96 807.996 364.565 803.253 361.603C803.308 361.677 802.723 362.66 802.672 362.773C802.287 363.627 801.734 364.402 801.407 365.284C801.352 365.433 801.3 365.589 801.253 365.752C801.169 366.047 801.098 366.362 801.037 366.687C800.989 366.931 800.949 367.179 800.914 367.431C800.868 367.772 800.828 368.115 800.797 368.45C800.783 368.632 800.769 368.814 800.757 368.991C800.698 369.873 800.69 370.654 800.698 371.119C800.704 371.532 800.733 371.954 800.807 372.362C800.828 372.463 800.85 372.564 800.874 372.663C800.953 372.963 801.062 373.25 801.217 373.52C801.379 373.799 801.58 374.041 801.81 374.255C801.928 374.364 802.049 374.463 802.178 374.556C802.822 375.022 803.617 375.325 804.388 375.555C805.647 375.928 807.49 376.184 808.782 376.425C809.429 376.544 810.075 376.661 810.719 376.786C811.367 376.911 812.009 377.046 812.646 377.202C814.703 377.706 816.768 378.342 818.851 378.964C820.338 379.406 821.832 379.841 823.337 380.215C824.542 380.514 825.753 380.772 826.97 380.966C827.307 381.02 827.644 381.067 827.981 381.105C828.32 381.145 828.657 381.178 828.994 381.206C829.646 381.26 830.3 381.291 830.952 381.305C831.311 381.313 831.675 381.317 832.036 381.317C833.051 381.311 834.066 381.272 835.081 381.216C837.788 381.063 840.498 380.782 843.205 380.699C843.651 380.685 844.174 380.627 844.688 380.505C845.829 380.237 846.951 379.658 847.229 378.548C847.282 378.344 847.298 378.13 847.29 377.91C847.288 377.902 847.288 377.894 847.286 377.886Z" fill="#1E2328"/>
<path d="M835.592 376.98C835.548 376.941 835.503 376.903 835.457 376.865C834.94 376.437 834.375 376.081 833.784 375.771C834 375.847 834.216 375.92 834.43 375.997C834.23 375.924 834.004 375.845 833.768 375.763C832.512 375.105 831.128 374.667 829.749 374.301C829.307 374.184 828.867 374.073 828.423 373.96C826.371 373.28 824.544 372.683 823.989 372.501C823.911 372.463 823.828 372.43 823.745 372.396C822.843 371.744 813.303 365.423 809.311 362C809.198 361.903 809.087 361.798 808.974 361.695C808.031 355.772 808.326 349.354 808.326 349.354L793.935 349.291C793.935 349.291 796.02 357.929 795.746 362.523C795.726 362.888 795.019 364.234 794.977 364.311C794.803 364.626 794.62 364.933 794.448 365.25C794.271 365.572 794.095 365.897 793.948 366.236C793.494 367.27 792.896 368.279 792.563 369.377C792.198 370.592 792.131 371.916 792.087 373.175C792.071 373.599 792.065 374.023 792.073 374.447C792.089 375.274 792.178 376.13 792.591 376.846C793.235 377.96 794.529 378.514 795.762 378.881C798.281 379.63 800.915 379.904 803.468 380.53C808.164 381.682 812.917 383.523 817.789 384.294C823.182 385.145 828.615 384.195 834.024 384.025C835.453 383.981 837.643 383.49 838.049 381.876C838.46 380.243 836.714 377.954 835.592 376.98Z" fill="#E1C9E8"/>
<path d="M792.064 373.956C792.04 373.611 792.03 373.268 792.05 372.925C792.026 373.282 792.026 373.625 792.064 373.956Z" fill="#FABD7A"/>
<path d="M817.069 376.138C817.036 376.136 817.006 376.132 816.974 376.128C817.006 376.132 817.036 376.136 817.069 376.138Z" fill="#FABD7A"/>
<path d="M816.465 376.051C816.285 376.021 816.108 375.983 815.928 375.94C816.112 375.985 816.289 376.019 816.465 376.051Z" fill="#FABD7A"/>
<path d="M822.393 374.094C822.473 374.011 822.552 373.918 822.631 373.831C822.552 373.918 822.475 374.009 822.393 374.094Z" fill="#FABD7A"/>
<path d="M822.978 373.434C822.938 373.48 822.903 373.528 822.865 373.573C822.903 373.528 822.94 373.48 822.978 373.434Z" fill="#FABD7A"/>
<path d="M828.351 373.94C827.991 373.849 827.636 373.756 827.281 373.66C827.251 373.651 827.22 373.641 827.19 373.633C826.096 373.333 825.017 372.987 823.995 372.503C823.995 372.503 823.995 372.503 823.993 372.503C825.446 372.977 826.898 373.458 828.351 373.94ZM838.105 381.214C838.093 381 838.056 380.78 837.996 380.56C837.935 380.33 837.851 380.098 837.748 379.866C837.647 379.636 837.528 379.406 837.396 379.182C837.33 379.069 837.261 378.957 837.191 378.848C836.868 378.354 836.5 377.898 836.145 377.521C836.036 377.401 835.927 377.29 835.822 377.189C835.818 377.185 835.814 377.181 835.808 377.177C835.736 377.107 835.663 377.04 835.592 376.98C835.548 376.941 835.503 376.903 835.457 376.865C835.287 376.723 835.11 376.594 834.93 376.469C834.858 376.416 834.785 376.366 834.71 376.316C834.623 376.259 834.535 376.205 834.446 376.15C834.23 376.017 834.008 375.89 833.782 375.771C834 375.847 834.216 375.92 834.43 375.997C834.23 375.924 834.006 375.845 833.768 375.763C833.14 375.434 832.482 375.159 831.804 374.923C831.491 374.814 831.178 374.713 830.863 374.618C830.809 374.602 830.756 374.586 830.702 374.57C830.385 374.475 830.066 374.386 829.749 374.301C829.307 374.184 828.867 374.073 828.423 373.96C826.371 373.28 824.544 372.683 823.989 372.501C823.943 372.479 823.9 372.459 823.854 372.439C823.82 372.422 823.783 372.406 823.745 372.396C823.031 371.879 815.735 366.61 810.749 362.741C807.647 367.288 798.816 367.891 794.073 364.929C794.129 365.005 793.544 365.988 793.491 366.099C793.106 366.953 792.553 367.73 792.226 368.612C792.171 368.759 792.121 368.917 792.075 369.08C791.988 369.373 791.917 369.69 791.857 370.015C791.808 370.259 791.77 370.507 791.734 370.757C791.687 371.098 791.647 371.441 791.618 371.777C791.602 371.96 791.588 372.142 791.576 372.317C791.518 373.199 791.509 373.98 791.52 374.447C791.526 374.86 791.552 375.28 791.627 375.688C791.647 375.791 791.669 375.892 791.695 375.991C791.772 376.289 791.881 376.578 792.038 376.846C792.2 377.125 792.4 377.369 792.63 377.583C792.747 377.69 792.87 377.789 792.999 377.884C793.643 378.35 794.436 378.653 795.207 378.881C796.466 379.256 798.309 379.51 799.603 379.751C800.249 379.872 800.894 379.987 801.542 380.114C802.186 380.239 802.828 380.374 803.468 380.53C805.522 381.034 807.589 381.67 809.67 382.29C811.157 382.734 812.651 383.17 814.156 383.543C815.361 383.842 816.572 384.1 817.789 384.294C818.126 384.346 818.463 384.393 818.802 384.431C819.139 384.473 819.476 384.506 819.814 384.534C820.465 384.586 821.119 384.617 821.771 384.633C822.134 384.641 822.494 384.643 822.855 384.643C823.87 384.639 824.885 384.598 825.9 384.542C828.609 384.391 831.317 384.11 834.024 384.025C834.47 384.011 834.993 383.955 835.509 383.834C836.648 383.565 837.77 382.986 838.048 381.876C838.101 381.672 838.119 381.458 838.109 381.236C838.107 381.23 838.107 381.222 838.105 381.214Z" fill="#2A2F36"/>
<path d="M792.434 273.31L793.15 274.616C793.182 274.674 793.211 274.733 793.235 274.795L797.873 286.245C798.075 286.741 798.026 287.305 797.748 287.761L788.872 302.187C788.716 302.439 788.5 302.645 788.242 302.785C787.206 303.348 785.929 302.702 785.767 301.537L785.513 299.715C785.469 299.392 785.517 299.063 785.654 298.768L787.998 293.769C788.171 293.402 788.205 292.996 788.094 292.606C787.485 290.455 785.42 282.814 785.037 276.454C784.986 275.647 785.549 274.931 786.335 274.745L792.434 273.31Z" fill="#FCD3AC"/>
<path d="M769.111 240.402C769.097 240.414 765.793 234.263 765.635 233.906C762.884 227.746 761.076 221.17 759.964 214.526C759.05 209.077 758.543 203.557 758.458 198.031C758.384 193.207 757.274 177.029 766.309 180.797C768.564 181.736 769.981 183.95 770.832 186.142C774.659 196.007 778.298 231.786 778.298 231.786L769.111 240.402Z" fill="#C81455"/>
<path d="M763.123 224.825C763.123 224.825 773.936 219.552 778.368 227.609C782.801 235.666 784.579 251.323 794.442 276.563L785.162 278.935C785.162 278.935 759.76 234.88 763.123 224.825Z" fill="#C81455"/>
<path d="M812.606 265.717C798.773 261.152 783.967 259.63 769.508 258.48C762.329 257.909 753.964 256.649 746.775 256.056C730.883 254.75 718.556 250.189 720.994 266.636C721.88 272.62 723.151 279.161 726.76 284.299C730.671 289.868 737.473 292.269 743.955 293.394C751.278 294.661 758.828 294.477 766.225 294.219C772.711 293.993 779.263 293.383 785.588 291.874C793.556 289.971 801.506 287.898 809.343 285.496C819.137 275.591 812.606 265.717 812.606 265.717Z" fill="url(#paint5_linear)"/>
<path d="M812.606 265.717C812.606 265.717 815.795 265.302 816.302 273.831C816.81 282.36 818.463 351.632 818.463 351.632L802.692 354.961C802.692 354.961 787.436 305.719 794.339 275.486C794.339 275.486 800.557 261.051 812.606 265.717Z" fill="#1E2328"/>
<path d="M803.233 268.882C789.37 264.415 774.552 262.999 760.087 261.951C752.904 261.432 744.528 260.23 737.337 259.691C733.155 259.378 729 258.774 724.822 258.427C722.656 258.248 717.57 257.765 715.962 259.695C714.87 261.005 714.468 263.877 714.049 265.461C712.949 269.619 712.26 274.057 712.826 278.352C713.887 286.388 720.965 291.995 727.991 294.964C737.063 298.796 747.435 298.118 757.058 297.715C763.544 297.442 770.092 296.784 776.405 295.23C784.359 293.27 792.292 291.139 800.113 288.685C809.837 278.707 803.233 268.882 803.233 268.882Z" fill="#2A2F36"/>
<path d="M803.233 268.882C803.233 268.882 806.42 268.444 806.989 276.967C807.558 285.494 809.706 354.751 809.706 354.751L793.959 358.194C793.959 358.194 778.352 309.061 785.039 278.78C785.039 278.78 791.152 264.301 803.233 268.882Z" fill="#2A2F36"/>
<path d="M716.174 190.727C717.272 188.644 718.717 186.81 720.527 185.457C724.305 182.634 728.855 180.254 733.511 178.781C743.626 175.58 755.221 175.855 764.927 180.038C766.073 180.531 767.218 181.092 768.061 181.936C769.627 183.51 769.884 185.764 770.065 187.857C772.396 214.639 774.893 236.418 777.553 263.176C753.015 263.041 733.329 264.288 712.394 272.192C714.152 264.789 719.298 255.88 719.464 237.413C719.502 232.858 718.075 228.055 717.209 223.614C715.203 213.329 710.916 200.717 716.174 190.727Z" fill="#E1C9E8"/>
<path d="M770.065 187.857C769.884 185.764 769.627 183.51 768.061 181.936C767.218 181.092 766.073 180.531 764.927 180.038C761.534 178.575 756.598 177.314 752.886 176.787C754.456 181.798 753.883 185.421 749.459 186.632C739.796 189.274 733.511 178.781 733.511 178.781C728.855 180.254 723.878 182.634 720.099 185.457C713.393 190.473 712.577 199.644 713.738 207.232C714.882 214.738 716.658 222.133 717.843 229.633C718.053 230.977 718.301 232.358 718.289 233.724C718.124 252.189 714.248 263.479 712.394 272.192C733.329 264.288 753.015 263.041 777.553 263.176C774.893 236.418 772.396 214.639 770.065 187.857Z" fill="#ED0C6C"/>
<path d="M742.458 242.348C742.443 242.362 738.924 240.398 736.53 237.797C732.078 232.961 727.212 227.792 724.566 222.129C722.394 217.485 720.693 212.671 719.492 207.745C718.446 203.44 713.905 189.238 725.426 190.259C728.298 190.513 730.427 192.128 731.876 193.869C738.397 201.71 751.386 232.247 751.386 232.247L742.458 242.348Z" fill="#C81455"/>
<path d="M742.409 242.358C742.409 242.358 730.655 236.103 735.081 229.348C739.507 222.593 751.808 214.286 767.849 195.96L776.314 202.443C776.314 202.443 752.747 240.198 742.409 242.358Z" fill="#C81455"/>
<path d="M752.067 166.603C752.111 168.924 752.157 171.243 752.2 173.564C752.2 173.564 752.674 181.122 751.283 182.571C748.805 185.163 741.979 184.301 739.271 182.384C737.674 181.253 736.488 179.641 735.63 177.899L737.02 158.808L752.067 166.603Z" fill="#C79FD6"/>
<path d="M736.76 145.353L737.481 152.546L738.581 163.517L738.89 166.603C748.151 176.827 759.746 175.707 762.612 171.057C765.482 166.407 762.531 143.859 762.531 143.859L736.76 145.353Z" fill="#E1C9E8"/>
<path d="M760.281 153.391L760.031 163.079L765.563 163.222L760.281 153.391Z" fill="#C79FD6"/>
<path d="M741.38 142.261L741.658 156.588L738.108 151.825L735.874 174.537C735.874 174.537 724.219 153.722 728.6 143.728L730.251 142.477C730.251 142.477 725.345 133.116 741.943 132.034C758.545 130.95 769.042 130.595 768.729 137.615C768.414 144.636 766.747 148.778 766.747 148.778L741.38 142.261Z" fill="#1E2328"/>
<path d="M733.256 151.732C731.381 154.534 732.578 160.318 738.429 162.003L738.149 151.831C737.428 150.441 734.488 149.888 733.256 151.732Z" fill="#E1C9E8"/>
<path d="M737.172 144.006L753.651 147.534L746.204 139.318L737.172 144.006Z" fill="#1E2328"/>
<path d="M787.079 193.773L775.474 196.011L777.428 172.633L789.031 170.395L787.079 193.773Z" fill="#2A2F36"/>
<path d="M773.845 195.666L775.474 196.011L777.428 172.633L775.799 172.288L773.845 195.666Z" fill="#1E2328"/>
<path d="M775.799 172.288L787.402 170.048L789.031 170.395L777.428 172.633L775.799 172.288Z" fill="#1E2328"/>
<path d="M740.688 256.296C740.674 256.314 736.968 253.83 734.447 250.54C729.763 244.425 726.263 237.167 723.478 230.004C721.191 224.131 719.401 218.046 718.138 211.814C717.036 206.371 712.259 188.408 724.382 189.702C727.404 190.023 729.644 192.065 731.17 194.267C738.034 204.183 750.083 243.523 750.083 243.523L740.688 256.296Z" fill="#ED0C6C"/>
<path d="M774.433 189.635L788.492 177.473C788.492 177.473 790.018 179.98 789.146 181.833C788.272 183.685 788.819 185.32 788.272 187.062C787.729 188.808 788.381 193.383 786.746 196.001C785.114 198.616 780.318 199.268 778.574 201.666C776.829 204.064 773.496 209.404 773.496 209.404L764.731 202.867L769.638 195.892C769.638 195.892 769.311 186.19 774.976 181.615L774.433 189.635Z" fill="#E1C9E8"/>
<path d="M740.635 256.31C740.635 256.31 728.267 248.399 732.923 239.857C737.582 231.314 750.527 220.807 767.407 197.633L776.314 205.832C776.314 205.832 751.514 253.579 740.635 256.31Z" fill="#ED0C6C"/>
<path d="M769.72 229.467L758.906 261.77L737.418 262.74V267.316H806.321L817.688 229.467H769.026" fill="#492B8A"/>
<path d="M422.562 26.086C416.592 26.086 410.931 27.4079 405.847 29.7612C401.383 12.6403 385.816 1.52588e-05 367.294 1.52588e-05C345.291 1.52588e-05 327.452 17.8393 327.452 39.8444C327.452 39.8847 327.456 39.9271 327.456 39.9675C323.531 38.3952 319.252 37.5214 314.767 37.5214C295.919 37.5214 280.641 52.7975 280.641 71.646C280.641 90.4924 295.919 105.773 314.767 105.773C315.837 105.773 316.895 105.718 317.94 105.621H419.093C420.237 105.72 421.394 105.773 422.562 105.773C444.567 105.773 462.405 87.9334 462.405 65.9283C462.405 43.9253 444.567 26.086 422.562 26.086Z" fill="url(#paint6_linear)"/>
<path d="M130.816 223.039C126.779 223.039 122.953 223.933 119.515 225.524C116.497 213.947 105.972 205.402 93.4492 205.402C78.5717 205.402 66.5102 217.463 66.5102 232.339C66.5102 232.368 66.5118 232.396 66.5118 232.424C63.8598 231.361 60.9672 230.769 57.9334 230.769C45.191 230.769 34.8607 241.099 34.8607 253.842C34.8607 266.585 45.191 276.917 57.9334 276.917C58.658 276.917 59.3722 276.878 60.0786 276.814H128.471C129.243 276.88 130.026 276.917 130.816 276.917C145.694 276.917 157.754 264.853 157.754 249.977C157.754 235.098 145.694 223.039 130.816 223.039Z" fill="url(#paint7_linear)"/>
<path d="M565.836 779C565.705 779.221 565.593 779.465 565.501 779.726L565.36 779.606C565.34 779.457 565.255 779.354 565.161 779.372C565.061 779.392 564.989 779.542 565.001 779.707C565.013 779.873 565.104 779.991 565.204 779.972C565.224 779.968 565.242 779.959 565.259 779.945L565.396 780.063C565.32 780.34 565.265 780.632 565.233 780.935L565.458 781C565.528 780.347 565.715 779.747 566 779.264L565.836 779Z" fill="#21272D"/>
<path d="M569.01 777.569C568.907 777.569 568.804 777.571 568.701 777.574L568.657 777.385C568.77 777.34 568.836 777.268 568.818 777.191C568.79 777.073 568.574 776.988 568.336 777.001C568.099 777.016 567.929 777.123 567.957 777.241C567.975 777.318 568.071 777.38 568.202 777.411L568.246 777.599C567.814 777.634 567.397 777.699 567 777.794L567.198 778C567.762 777.865 568.372 777.797 569.01 777.797C569.31 777.797 569.611 777.813 569.902 777.845L570 777.621C569.676 777.587 569.343 777.569 569.01 777.569Z" fill="#21272D"/>
<path d="M571.846 778.765C571.942 778.742 572.011 778.574 571.999 778.388C571.987 778.202 571.899 778.071 571.803 778.094C571.713 778.115 571.647 778.264 571.649 778.435L571.528 778.638C571.406 778.398 571.268 778.183 571.117 778L571 778.359C571.33 778.76 571.588 779.327 571.746 780L571.947 779.825C571.874 779.514 571.782 779.223 571.673 778.958L571.79 778.761C571.808 778.768 571.827 778.77 571.846 778.765Z" fill="#21272D"/>
<path d="M568.596 782.806C568.391 782.817 568.186 782.821 567.983 782.821C567.518 782.821 567.066 782.794 566.672 782.742C566.466 782.714 566.224 782.673 566 782.612C566.554 783.438 567.624 784 568.851 784C570.362 784 571.636 783.149 572 782C571.639 782.199 571.203 782.366 570.699 782.499C570.075 782.662 569.347 782.768 568.596 782.806Z" fill="#21272D"/>
<path d="M570.273 780.814C569.903 780.814 569.602 780.507 569.602 780.131C569.602 779.754 569.903 779.448 570.273 779.448C570.643 779.448 570.944 779.754 570.944 780.131C570.944 780.507 570.643 780.814 570.273 780.814ZM567.935 781.269C567.431 781.269 567.022 780.853 567.022 780.341C567.022 779.829 567.431 779.413 567.935 779.413C568.438 779.413 568.848 779.829 568.848 780.341C568.848 780.853 568.438 781.269 567.935 781.269ZM569.001 778C567.346 778 566 779.338 566 780.983C566 781.196 566.023 781.409 566.068 781.616C566.4 781.858 567.403 782.062 568.707 781.982C570.128 781.896 571.321 781.502 572 780.899C571.997 780.802 571.99 780.703 571.978 780.607C571.79 779.121 570.51 778 569.001 778Z" fill="#21272D"/>
<path d="M576.999 779.127C576.839 779.062 576.56 778.956 576.245 778.996C575.944 779.033 575.785 779.183 575.785 779.552V780.031H577V780.981H575.785V784H574.731V780.981H574V780.031H574.731V779.54C574.731 778.61 575.219 778 576.132 778C576.482 778 576.763 778.067 576.999 778.171L576.999 779.127Z" fill="#21272D"/>
<path d="M579.387 781.026C579.281 781.01 579.172 781.001 579.07 781.001C578.532 781.001 578.162 781.299 578.162 781.878V784H577V780.105H578.126V780.531C578.398 780.165 578.813 780 579.342 780C579.592 780 579.852 780.069 580 780.183L579.387 781.026Z" fill="#21272D"/>
<path d="M580.843 781.643H582.182C582.107 781.157 581.873 780.883 581.523 780.883C581.139 780.883 580.915 781.172 580.843 781.643ZM583 781.996C583 782.114 582.994 782.255 582.984 782.341H580.84C580.927 782.89 581.233 783.13 581.617 783.13C581.879 783.13 582.163 782.996 582.382 782.765L582.86 783.423C582.516 783.819 582.079 784 581.57 784C580.643 784 580 783.208 580 782.012C580 780.816 580.624 780 581.529 780C582.401 780 582.997 780.812 583 781.996Z" fill="#21272D"/>
<path d="M584.843 781.643H586.182C586.107 781.157 585.873 780.883 585.523 780.883C585.139 780.883 584.915 781.172 584.843 781.643ZM587 781.996C587 782.114 586.994 782.255 586.984 782.341H584.84C584.927 782.89 585.233 783.13 585.617 783.13C585.879 783.13 586.164 782.996 586.382 782.765L586.86 783.423C586.516 783.819 586.079 784 585.57 784C584.643 784 584 783.208 584 782.012C584 780.816 584.624 780 585.53 780C586.401 780 586.997 780.812 587 781.996Z" fill="#21272D"/>
<path d="M588.974 781.828C588.974 782.376 589.372 782.785 589.957 782.785C590.564 782.785 590.943 782.358 590.943 781.828C590.943 781.298 590.564 780.871 589.957 780.871C589.372 780.871 588.974 781.28 588.974 781.828ZM592 781.828C592 782.871 591.203 783.656 590.15 783.656C589.637 783.656 589.274 783.473 589.026 783.204V785H588V780.093H589.006V780.477C589.254 780.194 589.621 780 590.146 780C591.203 780 592 780.785 592 781.828Z" fill="#21272D"/>
<path d="M592.895 784H592.111V780.001H592.895V784ZM593 778.693C593 779.081 592.781 779.378 592.498 779.378C592.216 779.378 592 779.081 592 778.693C592 778.305 592.216 778 592.498 778C592.781 778 593 778.305 593 778.693Z" fill="#21272D"/>
<path d="M594.825 781.4L595.979 779.962H596.991L595.504 781.862L597 784H595.985L594.825 782.366V784H594V778H594.825V781.4Z" fill="#21272D"/>
<path d="M526.504 782.947V781.334C526.325 781.025 525.94 780.76 525.543 780.76C524.901 780.76 524.517 781.349 524.517 782.137C524.517 782.925 524.901 783.506 525.543 783.506C525.94 783.506 526.325 783.256 526.504 782.947ZM526.504 783.912V783.381C526.265 783.742 525.874 784 525.424 784C524.59 784 524 783.293 524 782.137C524 781.003 524.583 780.266 525.424 780.266C525.854 780.266 526.245 780.502 526.504 780.892V779H527V783.912H526.504Z" fill="#21272D"/>
<path d="M530.017 780.489C529.141 780.489 528.706 781.176 528.672 781.76H531.37C531.362 781.191 530.954 780.489 530.017 780.489ZM528 781.996C528 780.891 528.851 780 530.026 780C531.268 780 532 780.899 532 782.043V782.193H528.672C528.723 782.911 529.268 783.511 530.153 783.511C530.621 783.511 531.098 783.337 531.421 783.03L531.728 783.416C531.32 783.795 530.766 784 530.094 784C528.876 784 528 783.187 528 781.996Z" fill="#21272D"/>
<path d="M532 783.401L532.304 782.975C532.553 783.267 533.029 783.519 533.543 783.519C534.12 783.519 534.431 783.243 534.431 782.864C534.431 781.941 532.101 782.509 532.101 781.097C532.101 780.505 532.608 780 533.504 780C534.143 780 534.595 780.244 534.899 780.552L534.626 780.963C534.4 780.687 533.987 780.482 533.504 780.482C532.99 780.482 532.67 780.742 532.67 781.081C532.67 781.917 535 781.365 535 782.848C535 783.487 534.494 784 533.519 784C532.904 784 532.382 783.81 532 783.401Z" fill="#21272D"/>
<path d="M539.502 782.576V781.049C539.33 780.745 538.945 780.485 538.547 780.485C537.902 780.485 537.518 781.042 537.518 781.816C537.518 782.583 537.902 783.148 538.547 783.148C538.945 783.148 539.33 782.88 539.502 782.576ZM537.179 784.479L537.431 784.074C537.697 784.421 538.016 784.551 538.473 784.551C539.004 784.551 539.502 784.269 539.502 783.502V783.003C539.27 783.358 538.878 783.625 538.427 783.625C537.59 783.625 537 782.945 537 781.816C537 780.695 537.584 780 538.427 780C538.858 780 539.244 780.232 539.502 780.615V780.087H540V783.48C540 784.638 539.256 785 538.473 785C537.929 785 537.557 784.884 537.179 784.479Z" fill="#21272D"/>
<path d="M543.439 784V781.447C543.439 780.76 543.117 780.542 542.631 780.542C542.189 780.542 541.77 780.832 541.561 781.147V784H541V780.097H541.561V780.663C541.816 780.339 542.309 780 542.848 780C543.603 780 544 780.412 544 781.261V784H543.439Z" fill="#21272D"/>
<path d="M547.017 780.489C546.14 780.489 545.706 781.176 545.672 781.76H548.37C548.361 781.191 547.953 780.489 547.017 780.489ZM545 781.996C545 780.891 545.851 780 547.026 780C548.268 780 549 780.899 549 782.043V782.193H545.672C545.723 782.911 546.268 783.511 547.153 783.511C547.621 783.511 548.098 783.337 548.421 783.03L548.728 783.416C548.319 783.795 547.766 784 547.094 784C545.876 784 545 783.187 545 781.996Z" fill="#21272D"/>
<path d="M552.338 782.947V781.334C552.099 781.025 551.587 780.76 551.057 780.76C550.201 780.76 549.689 781.349 549.689 782.137C549.689 782.925 550.201 783.506 551.057 783.506C551.587 783.506 552.099 783.256 552.338 782.947ZM552.338 783.912V783.381C552.02 783.742 551.499 784 550.898 784C549.786 784 549 783.293 549 782.137C549 781.003 549.777 780.266 550.898 780.266C551.472 780.266 551.993 780.502 552.338 780.892V779H553V783.912H552.338Z" fill="#21272D"/>
<path d="M556.934 783.506C557.799 783.506 558.311 782.925 558.311 782.137C558.311 781.349 557.799 780.76 556.934 780.76C556.413 780.76 555.891 781.025 555.662 781.334V782.947C555.891 783.256 556.413 783.506 556.934 783.506ZM555 783.912V779H555.662V780.892C556.007 780.502 556.518 780.266 557.101 780.266C558.214 780.266 559 781.003 559 782.137C559 783.293 558.214 784 557.101 784C556.501 784 555.98 783.742 555.662 783.381V783.912H555Z" fill="#21272D"/>
<path d="M559.471 784.448C559.562 784.485 559.711 784.507 559.81 784.507C560.083 784.507 560.265 784.426 560.405 784.131L560.67 783.593L559 780H559.67L561 782.916L562.322 780H563L561 784.279C560.76 784.794 560.356 784.993 559.827 785C559.695 785 559.488 784.978 559.372 784.949L559.471 784.448Z" fill="#21272D"/>
<path d="M678.172 74.7738C679.787 78.9077 680.691 83.3626 680.657 87.7962C680.548 101.89 671.027 110.44 659.393 106.897C647.758 103.358 638.413 89.0654 638.522 74.9733C638.574 68.2658 640.761 62.8184 644.291 59.3285C638.499 58.4836 631.94 59.0569 625.729 60.2534C624.888 63.6242 624.418 67.2929 624.387 71.223C624.312 80.9665 626.91 90.7678 631.352 99.3598L649.844 169.313L659.459 160.524L688.938 115.868C693.116 110.08 695.62 102.218 695.692 92.9237C695.766 83.3095 693.237 73.6419 688.905 65.1325L678.172 74.7738Z" fill="#C81455"/>
<path d="M660.373 38.8965C650.362 35.8496 641.285 38.1028 634.749 44.1806L634.719 44.1884L625.123 52.9586L627.596 54.6376C626.853 56.399 626.223 58.2707 625.729 60.2534C631.94 59.057 638.499 58.4837 644.291 59.3285C648.177 55.4862 653.691 54.0167 659.786 55.8738C667.758 58.2981 674.655 65.7744 678.172 74.7738L688.905 65.1325C682.492 52.5323 672.122 42.4722 660.373 38.8965Z" fill="#ED0C6C" fill-opacity="0.8"/>
<path d="M649.777 115.686C638.143 112.146 628.797 97.8544 628.906 83.7622C629.015 69.6726 638.537 61.1192 650.17 64.6615C661.805 68.202 671.151 82.4952 671.042 96.5861C670.933 110.68 661.411 119.229 649.777 115.686ZM650.757 47.6855C631.068 41.6933 614.955 56.1649 614.771 80.012C614.696 89.7556 617.296 99.5565 621.736 108.15L649.844 169.313L679.322 124.657C683.502 118.868 686.004 111.007 686.076 101.713C686.26 77.8669 670.444 53.6768 650.757 47.6855Z" fill="#ED0C6C"/>
<path d="M181.876 457.776C183.055 460.796 183.716 464.05 183.691 467.288C183.611 477.583 176.657 483.829 168.158 481.241C159.659 478.655 152.833 468.215 152.913 457.921C152.95 453.022 154.548 449.043 157.126 446.493C152.896 445.876 148.105 446.295 143.568 447.169C142.954 449.631 142.61 452.311 142.588 455.182C142.533 462.299 144.431 469.459 147.675 475.735L161.183 526.833L168.206 520.414L189.74 487.794C192.792 483.566 194.621 477.823 194.673 471.034C194.728 464.011 192.88 456.949 189.715 450.733L181.876 457.776Z" fill="#C81455"/>
<path d="M168.874 431.569C161.561 429.343 154.931 430.989 150.156 435.428L150.134 435.434L143.125 441.84L144.932 443.067C144.389 444.354 143.928 445.721 143.568 447.169C148.105 446.295 152.896 445.876 157.126 446.494C159.965 443.687 163.993 442.613 168.445 443.97C174.269 445.741 179.307 451.202 181.876 457.776L189.715 450.733C185.031 441.529 177.456 434.181 168.874 431.569Z" fill="#ED0C6C" fill-opacity="0.8"/>
<path d="M161.134 487.661C152.636 485.075 145.809 474.635 145.888 464.342C145.968 454.05 152.923 447.802 161.421 450.389C169.92 452.975 176.747 463.416 176.667 473.709C176.588 484.004 169.632 490.249 161.134 487.661ZM161.85 437.989C147.467 433.612 135.698 444.183 135.564 461.602C135.509 468.72 137.407 475.879 140.651 482.156L161.183 526.833L182.715 494.214C185.769 489.985 187.597 484.243 187.649 477.454C187.784 460.035 176.231 442.365 161.85 437.989Z" fill="#ED0C6C"/>
<path d="M669.876 692.776C671.055 695.796 671.716 699.05 671.691 702.288C671.611 712.583 664.657 718.829 656.158 716.241C647.659 713.655 640.833 703.215 640.913 692.921C640.95 688.022 642.548 684.043 645.126 681.493C640.896 680.876 636.105 681.295 631.568 682.169C630.954 684.631 630.61 687.311 630.588 690.182C630.533 697.299 632.431 704.459 635.675 710.735L649.183 761.833L656.206 755.414L677.74 722.794C680.792 718.566 682.621 712.823 682.673 706.034C682.728 699.011 680.88 691.949 677.715 685.733L669.876 692.776Z" fill="#C81455"/>
<path d="M656.874 666.569C649.561 664.343 642.931 665.989 638.156 670.428L638.134 670.434L631.125 676.84L632.932 678.067C632.389 679.354 631.928 680.721 631.568 682.169C636.105 681.295 640.896 680.876 645.126 681.494C647.965 678.687 651.993 677.613 656.445 678.97C662.269 680.741 667.307 686.202 669.876 692.776L677.715 685.733C673.031 676.529 665.456 669.181 656.874 666.569Z" fill="#ED0C6C" fill-opacity="0.8"/>
<path d="M649.134 722.661C640.636 720.075 633.809 709.635 633.888 699.342C633.968 689.05 640.923 682.802 649.421 685.389C657.92 687.975 664.747 698.416 664.667 708.709C664.588 719.004 657.632 725.249 649.134 722.661ZM649.85 672.989C635.467 668.612 623.698 679.183 623.564 696.602C623.509 703.72 625.407 710.879 628.651 717.156L649.183 761.833L670.715 729.214C673.769 724.985 675.597 719.243 675.649 712.454C675.784 695.035 664.231 677.365 649.85 672.989Z" fill="#ED0C6C"/>
<defs>
<radialGradient id="paint0_radial" cx="0" cy="0" r="1" gradientUnits="userSpaceOnUse" gradientTransform="translate(472.944 795.765) scale(334.788 714.258)">
<stop stop-color="#D8CEEB"/>
<stop offset="1" stop-color="#ECF9FE"/>
</radialGradient>
<linearGradient id="paint1_linear" x1="813.946" y1="232.507" x2="910.252" y2="176.904" gradientUnits="userSpaceOnUse">
<stop stop-color="#FBFEFE"/>
<stop offset="1" stop-color="#D8CEEB"/>
</linearGradient>
<linearGradient id="paint2_linear" x1="142.58" y1="471.301" x2="783.134" y2="471.301" gradientUnits="userSpaceOnUse">
<stop stop-color="#AFAFAF"/>
<stop offset="1" stop-color="#442B84"/>
</linearGradient>
<linearGradient id="paint3_linear" x1="131.965" y1="667.084" x2="141.912" y2="667.084" gradientUnits="userSpaceOnUse">
<stop stop-color="#585967"/>
<stop offset="0.919786" stop-color="#1E2228"/>
<stop offset="1" stop-color="#1E2228"/>
</linearGradient>
<linearGradient id="paint4_linear" x1="359.492" y1="521.226" x2="391.546" y2="521.226" gradientUnits="userSpaceOnUse">
<stop stop-color="#3D404C"/>
<stop offset="0.264706" stop-color="#3D404C"/>
<stop offset="0.909091" stop-color="#1E2228"/>
<stop offset="1" stop-color="#1E2228"/>
</linearGradient>
<linearGradient id="paint5_linear" x1="767.712" y1="294.407" x2="767.712" y2="254.479" gradientUnits="userSpaceOnUse">
<stop stop-color="#1E2228"/>
<stop offset="0.336898" stop-color="#1E2228"/>
<stop offset="1" stop-color="#3D404C"/>
</linearGradient>
<linearGradient id="paint6_linear" x1="443.79" y1="108.861" x2="301.35" y2="26.6226" gradientUnits="userSpaceOnUse">
<stop stop-color="#FBFEFE"/>
<stop offset="1" stop-color="#D8CEEB"/>
</linearGradient>
<linearGradient id="paint7_linear" x1="145.169" y1="279.004" x2="48.8625" y2="223.401" gradientUnits="userSpaceOnUse">
<stop stop-color="#FBFEFE"/>
<stop offset="1" stop-color="#D8CEEB"/>
</linearGradient>
</defs>
</svg>
