<svg width="196" height="46" viewBox="0 0 196 46" fill="none" xmlns="http://www.w3.org/2000/svg">
<path d="M16.728 22.848C16.728 20.64 16.616 19.088 16.392 18.192C16.168 17.264 15.72 16.672 15.048 16.416C14.376 16.128 13.208 15.984 11.544 15.984C9.88 15.984 8.632 16.24 7.8 16.752C7 17.264 6.472 18.032 6.216 19.056C5.992 20.048 5.88 21.488 5.88 23.376V36H0.792V0.335999H5.88V14.496H6.216C6.792 13.376 7.672 12.544 8.856 12C10.04 11.456 11.672 11.184 13.752 11.184C16.024 11.184 17.736 11.536 18.888 12.24C20.04 12.912 20.808 13.92 21.192 15.264C21.608 16.608 21.816 18.432 21.816 20.736V36H16.728V22.848ZM35.6726 36.384C33.0486 36.384 31.1126 35.84 29.8646 34.752C28.6486 33.664 28.0406 31.808 28.0406 29.184C28.0406 27.264 28.2646 25.776 28.7126 24.72C29.1606 23.632 29.9286 22.848 31.0166 22.368C32.1046 21.856 33.6406 21.6 35.6246 21.6C37.4486 21.6 40.2166 21.664 43.9286 21.792V20.736C43.9286 19.104 43.7526 17.952 43.4006 17.28C43.0806 16.576 42.4726 16.128 41.5766 15.936C40.6806 15.744 39.1286 15.648 36.9206 15.648C35.8646 15.648 34.5686 15.696 33.0326 15.792C31.4966 15.888 30.3606 16 29.6246 16.128V11.856C32.3126 11.376 35.3366 11.136 38.6966 11.136C41.7046 11.136 43.9286 11.472 45.3686 12.144C46.8406 12.784 47.8166 13.776 48.2966 15.12C48.7766 16.464 49.0166 18.4 49.0166 20.928V36H44.3606L44.1686 32.88H43.8806C43.1446 34.288 42.0566 35.232 40.6166 35.712C39.1766 36.16 37.5286 36.384 35.6726 36.384ZM37.9766 32.016C39.2886 32.016 40.3606 31.888 41.1926 31.632C42.0246 31.344 42.6486 30.864 43.0646 30.192C43.6406 29.232 43.9286 27.824 43.9286 25.968V25.248H36.9206C35.8006 25.248 34.9686 25.328 34.4246 25.488C33.9126 25.648 33.5446 25.968 33.3206 26.448C33.1286 26.928 33.0326 27.664 33.0326 28.656C33.0326 29.648 33.1446 30.384 33.3686 30.864C33.6246 31.312 34.0886 31.616 34.7606 31.776C35.4326 31.936 36.5046 32.016 37.9766 32.016ZM65.211 36.384C63.803 36.384 62.235 36.32 60.507 36.192C58.779 36.064 57.291 35.904 56.043 35.712V31.392C58.987 31.712 61.819 31.872 64.539 31.872C66.043 31.872 67.147 31.792 67.851 31.632C68.555 31.44 69.003 31.152 69.195 30.768C69.419 30.352 69.531 29.76 69.531 28.992C69.531 28.192 69.451 27.632 69.291 27.312C69.163 26.96 68.923 26.72 68.571 26.592C68.251 26.464 67.643 26.352 66.747 26.256L60.795 25.536C59.291 25.344 58.139 24.976 57.339 24.432C56.539 23.856 55.995 23.088 55.707 22.128C55.419 21.168 55.275 19.936 55.275 18.432C55.275 16.352 55.659 14.784 56.427 13.728C57.227 12.672 58.299 11.984 59.643 11.664C61.019 11.312 62.811 11.136 65.019 11.136C66.331 11.136 67.739 11.216 69.243 11.376C70.779 11.504 72.043 11.68 73.035 11.904V16.176C70.571 15.824 68.027 15.648 65.403 15.648C64.027 15.648 62.987 15.712 62.283 15.84C61.579 15.936 61.051 16.192 60.699 16.608C60.347 16.992 60.171 17.6 60.171 18.432C60.171 19.136 60.235 19.664 60.363 20.016C60.491 20.336 60.715 20.56 61.035 20.688C61.387 20.816 61.963 20.928 62.763 21.024L69.243 21.84C70.555 22 71.563 22.272 72.267 22.656C72.971 23.04 73.499 23.712 73.851 24.672C74.203 25.632 74.379 27.04 74.379 28.896C74.379 30.976 74.027 32.56 73.323 33.648C72.651 34.736 71.659 35.472 70.347 35.856C69.067 36.208 67.355 36.384 65.211 36.384ZM96.5561 22.848C96.5561 20.64 96.4441 19.088 96.2201 18.192C95.9961 17.264 95.5481 16.672 94.8761 16.416C94.2041 16.128 93.0361 15.984 91.3721 15.984C89.7081 15.984 88.4601 16.24 87.6281 16.752C86.8281 17.264 86.3001 18.032 86.0441 19.056C85.8201 20.048 85.7081 21.488 85.7081 23.376V36H80.6201V0.335999H85.7081V14.496H86.0441C86.6201 13.376 87.5001 12.544 88.6841 12C89.8681 11.456 91.5001 11.184 93.5801 11.184C95.8521 11.184 97.5641 11.536 98.7161 12.24C99.8681 12.912 100.636 13.92 101.02 15.264C101.436 16.608 101.644 18.432 101.644 20.736V36H96.5561V22.848ZM111.469 36V16.032H106.573V11.52H111.469V4.416H116.557V11.52H122.269V16.032H116.557V36H111.469ZM133.032 36.384C130.408 36.384 128.472 35.84 127.224 34.752C126.008 33.664 125.4 31.808 125.4 29.184C125.4 27.264 125.624 25.776 126.072 24.72C126.52 23.632 127.288 22.848 128.376 22.368C129.464 21.856 131 21.6 132.984 21.6C134.808 21.6 137.576 21.664 141.288 21.792V20.736C141.288 19.104 141.112 17.952 140.76 17.28C140.44 16.576 139.832 16.128 138.936 15.936C138.04 15.744 136.488 15.648 134.28 15.648C133.224 15.648 131.928 15.696 130.392 15.792C128.856 15.888 127.72 16 126.984 16.128V11.856C129.672 11.376 132.696 11.136 136.056 11.136C139.064 11.136 141.288 11.472 142.728 12.144C144.2 12.784 145.176 13.776 145.656 15.12C146.136 16.464 146.376 18.4 146.376 20.928V36H141.72L141.528 32.88H141.24C140.504 34.288 139.416 35.232 137.976 35.712C136.536 36.16 134.888 36.384 133.032 36.384ZM135.336 32.016C136.648 32.016 137.72 31.888 138.552 31.632C139.384 31.344 140.008 30.864 140.424 30.192C141 29.232 141.288 27.824 141.288 25.968V25.248H134.28C133.16 25.248 132.328 25.328 131.784 25.488C131.272 25.648 130.904 25.968 130.68 26.448C130.488 26.928 130.392 27.664 130.392 28.656C130.392 29.648 130.504 30.384 130.728 30.864C130.984 31.312 131.448 31.616 132.12 31.776C132.792 31.936 133.864 32.016 135.336 32.016ZM163.194 45.888C161.626 45.888 160.042 45.84 158.442 45.744C156.874 45.648 155.626 45.536 154.698 45.408V41.184C157.386 41.312 159.818 41.376 161.994 41.376C164.362 41.376 166.058 41.184 167.082 40.8C168.106 40.448 168.762 39.792 169.05 38.832C169.37 37.904 169.53 36.352 169.53 34.176V32.928H169.29C168.65 34.144 167.706 34.992 166.458 35.472C165.242 35.92 163.69 36.144 161.802 36.144C159.562 36.144 157.818 35.776 156.57 35.04C155.322 34.304 154.426 33.056 153.882 31.296C153.338 29.536 153.066 27.024 153.066 23.76C153.066 20.464 153.338 17.92 153.882 16.128C154.426 14.304 155.322 13.024 156.57 12.288C157.85 11.52 159.61 11.136 161.85 11.136C163.61 11.136 165.146 11.392 166.458 11.904C167.802 12.416 168.81 13.36 169.482 14.736H169.77L169.962 11.52H174.618V33.024C174.618 36.416 174.362 38.976 173.85 40.704C173.37 42.464 172.314 43.76 170.682 44.592C169.082 45.456 166.586 45.888 163.194 45.888ZM163.914 31.44C165.194 31.44 166.218 31.296 166.986 31.008C167.754 30.688 168.33 30.224 168.714 29.616C169.066 29.04 169.29 28.32 169.386 27.456C169.482 26.56 169.53 25.312 169.53 23.712C169.53 22.112 169.482 20.88 169.386 20.016C169.29 19.12 169.066 18.384 168.714 17.808C168.33 17.168 167.754 16.704 166.986 16.416C166.218 16.096 165.194 15.936 163.914 15.936C162.122 15.936 160.842 16.112 160.074 16.464C159.338 16.784 158.842 17.456 158.586 18.48C158.33 19.504 158.202 21.248 158.202 23.712C158.202 26.144 158.33 27.872 158.586 28.896C158.842 29.92 159.338 30.608 160.074 30.96C160.842 31.28 162.122 31.44 163.914 31.44ZM182.245 11.52H186.901L187.093 15.888H187.477C188.053 14.096 188.981 12.864 190.261 12.192C191.573 11.488 193.317 11.136 195.493 11.136V16.416C193.317 16.416 191.637 16.736 190.453 17.376C189.301 17.984 188.485 18.96 188.005 20.304C187.557 21.616 187.333 23.456 187.333 25.824V36H182.245V11.52Z" fill="url(#paint0_linear)"/>
<defs>
<linearGradient id="paint0_linear" x1="-3" y1="19" x2="197.001" y2="19" gradientUnits="userSpaceOnUse">
<stop stop-color="#AFAFAF"/>
<stop offset="1" stop-color="#442B84"/>
</linearGradient>
</defs>
</svg>
