<svg width="52" height="44" viewBox="0 0 52 44" fill="none" xmlns="http://www.w3.org/2000/svg">
<path d="M52 5.20848C50.0869 6.09208 48.0306 6.68899 45.8728 6.95754C48.0753 5.58287 49.7671 3.40609 50.5635 0.812138C48.502 2.08529 46.2189 3.00949 43.7887 3.5076C41.8428 1.34868 39.0702 0 36.0017 0C30.11 0 25.3331 4.97323 25.3331 11.1075C25.3331 11.9781 25.4274 12.826 25.6094 13.639C16.7429 13.1758 8.88205 8.75343 3.62016 2.03304C2.70184 3.67354 2.1756 5.58152 2.1756 7.61727C2.1756 11.4711 4.05904 14.871 6.92164 16.8628C5.17288 16.8052 3.52786 16.3055 2.08953 15.4736C2.08832 15.5199 2.08832 15.5664 2.08832 15.6132C2.08832 20.995 5.76577 25.4842 10.6462 26.5053C9.75106 26.7592 8.80855 26.8949 7.83563 26.8949C7.14819 26.8949 6.48 26.825 5.82844 26.6956C7.18616 31.1085 11.1259 34.3199 15.7945 34.4093C12.1433 37.3887 7.5434 39.1646 2.54489 39.1646C1.68376 39.1646 0.834603 39.1118 0 39.0092C4.72135 42.1611 10.329 44 16.3538 44C35.9768 44 46.7078 27.0743 46.7078 12.3953C46.7078 11.9137 46.6974 11.4348 46.6768 10.9581C48.761 9.39231 50.5696 7.43615 51.9998 5.20848H52Z" fill="#2AA9E0"/>
</svg>
